<?xml version="1.0" encoding="UTF-8"?>
<svg width="32px" height="35px" viewBox="0 0 32 35" version="1.1" xmlns="http://www.w3.org/2000/svg" xmlns:xlink="http://www.w3.org/1999/xlink">
    <title>保存图片</title>
    <g id="页面-1" stroke="none" stroke-width="1" fill="none" fill-rule="evenodd">
        <g id="保存图片" fill="#FFFFFF" fill-rule="nonzero">
            <path d="M15.0058411,0.33015873 C15.6083523,-0.11005291 16.4057936,-0.11005291 17.0083048,0.33015873 C18.9930475,1.77405291 23.9194626,4.80270899 29.9091328,4.96118519 C30.6888532,4.99640212 31.3268062,5.55987302 31.4862945,6.31703704 C32.4077822,11.0713228 34.0912693,27.1654603 16.0336543,34.6666667 C-2.07712352,27.1830688 -0.429078186,11.0713228 0.527851365,6.31703704 C0.669618706,5.55987302 1.34301358,4.99640212 2.10501303,4.96118519 C8.09468319,4.80270899 12.9679355,1.77405291 15.0058411,0.33015873 Z M16.0432078,4.86949212 C15.7637264,6.51661849 13.8925884,6.80838334 13.8925884,6.80838334 C11.9937005,7.11670222 11.0739886,5.6889168 11.0739886,5.6889168 C11.8939077,7.94330759 13.2716604,8.07944008 13.5204772,8.08528244 L15.9428888,8.08585728 C15.2423323,9.88724746 12.4639028,10.2176642 12.4639028,10.2176642 C9.30405944,10.6088113 7.7744373,8.7951239 7.7744373,8.7951239 C7.88752674,9.03317189 8.00704207,9.25265681 8.13151958,9.45533912 C8.12885559,9.453574 8.12619156,9.45180673 8.12352748,9.45003732 C6.20106684,11.4346848 5.01785011,14.1396602 5.01785011,17.1209907 C5.01785011,23.210675 9.9545146,28.1473395 16.0441989,28.1473395 C22.1338831,28.1473395 27.0705476,23.210675 27.0705476,17.1209907 C27.0705476,14.1380529 25.8860547,11.4317683 23.9615608,9.44682494 C24.0842243,9.24673141 24.2022049,9.02996045 24.3139604,8.7951239 C24.3139604,8.7951239 22.7843383,10.61087 19.6244949,10.2176642 C19.6244949,10.2176642 16.8483653,9.88724746 16.1458934,8.08585728 L16.1458934,8.08585728 L18.5663275,8.08527178 C18.8107962,8.079675 20.1927229,7.94628505 21.0144091,5.6889168 C21.0144091,5.6889168 20.0946972,7.11670222 18.1938272,6.80838334 L18.1938272,6.80838334 C18.052248,6.78393492 16.3119399,6.45326748 16.0432078,4.86949212 Z" id="形状结合"></path>
            <polygon id="路径-130备份-29" transform="translate(16.043057, 21.322926) rotate(-180.000000) translate(-16.043057, -21.322926) " points="15.98353 17.9879553 9.8818726 21.4510476 15.3313444 24.6578974 17.2903808 23.6211992 13.5799337 21.4510476 15.98353 20.0985396 20.3159976 22.5564681 20.3159976 23.3648458 22.2042418 24.5010295 22.2042418 21.4510476"></polygon>
            <polygon id="路径-130备份-30" points="15.9835296 10.9942305 9.8818722 14.4573228 15.331344 17.6641726 17.2903804 16.6274743 13.5799333 14.4573228 15.9835296 13.1048148 20.3159972 15.5627433 20.3159972 16.371121 22.2042414 17.5073047 22.2042414 14.4573228"></polygon>
        </g>
    </g>
</svg>