<?xml version="1.0" encoding="UTF-8"?>
<svg width="68px" height="59px" viewBox="0 0 68 59" version="1.1" xmlns="http://www.w3.org/2000/svg" xmlns:xlink="http://www.w3.org/1999/xlink">
    <title>叹号</title>
    <g id="页面-1" stroke="none" stroke-width="1" fill="none" fill-rule="evenodd">
        <g id="动效2备份-4" transform="translate(-686.000000, -270.000000)" fill="#FFFFFF" fill-rule="nonzero">
            <g id="叹号-(12)" transform="translate(686.000000, 270.000000)">
                <path d="M29.4553882,2.85223831 C31.5168695,-0.67474872 35.6063377,-1.21708793 37.9346082,2.85223831 C39.4733216,5.37928813 45.7526833,16.0106338 52.0857051,26.7555993 L52.9116705,28.1571041 C53.0492537,28.3905768 53.186766,28.6239389 53.3241592,28.8571084 L54.1467038,30.2531579 C60.8461877,41.6246281 67.0284864,52.1394861 67.0284864,52.1394861 C67.0285643,52.1394861 67.029446,52.1411226 67.0311563,52.1443464 L67.0509365,52.1823453 C67.3107957,52.6887036 69.6770063,57.5375924 65.7838081,59 L65.7838081,59 L3.35593537,59 C3.35593529,59 -3.48967849,57.5594695 2.37337245,49.2766322 C4.71789162,45.3138353 10.7439062,34.9707596 16.7956029,24.577904 L17.80383,22.8463859 C22.2803239,15.1583502 26.6594688,7.63597393 29.4553882,2.85223831 Z M33.9809883,43.3226771 C31.8241639,43.3226771 30.075741,45.0617266 30.075741,47.2069882 C30.075741,49.3522498 31.8241639,51.0912993 33.9809104,51.0912993 C36.1377349,51.0912993 37.8862356,49.3521723 37.8862356,47.2069882 C37.8862356,45.0617266 36.1378128,43.3226771 33.9809883,43.3226771 Z M34.0229736,19.3671655 C31.8430144,19.3671655 30.075741,21.1249644 30.075741,23.2933141 L30.075741,23.2933141 L30.075741,35.6891748 C30.075741,37.857447 31.8429366,39.615246 34.0229736,39.615246 C36.2030105,39.615246 37.9702839,37.8575246 37.9702839,35.6891748 L37.9702839,35.6891748 L37.9702839,23.2933141 C37.9702839,21.1249644 36.2029327,19.3671655 34.0229736,19.3671655 Z" id="形状结合"></path>
            </g>
        </g>
    </g>
</svg>